<svg xmlns="http://www.w3.org/2000/svg" xmlns:xlink="http://www.w3.org/1999/xlink" width="500" zoomAndPan="magnify" viewBox="0 0 375 374.999991" height="500" preserveAspectRatio="xMidYMid meet" version="1.0"><defs><g/></defs><rect x="-37.5" width="450" fill="#ffffff" y="-37.499999" height="449.999989" fill-opacity="1"/><rect x="-37.5" width="450" fill="#ffffff" y="-37.499999" height="449.999989" fill-opacity="1"/><rect x="-37.5" width="450" fill="#244a84" y="-37.499999" height="449.999989" fill-opacity="1"/><g fill="#ffffff" fill-opacity="1"><g transform="translate(65.378371, 177.907188)"><g><path d="M 38.496094 -20.425781 C 38.496094 -12.082031 33.683594 -7.269531 24.167969 -7.269531 C 15.824219 -7.269531 11.226562 -11.015625 8.234375 -11.015625 C 6.09375 -11.015625 4.382812 -8.980469 4.382812 -6.84375 C 4.382812 -1.070312 17.214844 1.070312 24.058594 1.070312 C 37.53125 1.070312 47.476562 -7.058594 47.476562 -21.171875 C 47.476562 -39.886719 29.832031 -40.097656 19.570312 -45.445312 C 17.109375 -46.730469 13.367188 -49.082031 13.367188 -56.140625 C 13.367188 -65.441406 19.890625 -68.117188 26.734375 -68.117188 C 34.003906 -68.117188 36.785156 -65.121094 40.097656 -65.121094 C 42.773438 -65.121094 44.375 -67.046875 44.375 -69.183594 C 44.375 -75.171875 31.4375 -76.457031 26.089844 -76.457031 C 12.832031 -76.457031 4.492188 -68.542969 4.492188 -55.605469 C 4.492188 -36.675781 22.242188 -36.570312 32.398438 -31.222656 C 35.074219 -29.832031 38.496094 -27.375 38.496094 -20.425781 Z M 38.496094 -20.425781 "/></g></g></g><g fill="#ffffff" fill-opacity="1"><g transform="translate(112.000388, 177.907188)"><g><path d="M 47.15625 -4.382812 C 47.15625 -6.523438 45.125 -8.339844 42.878906 -8.339844 L 16.359375 -8.339844 L 16.359375 -33.683594 L 39.777344 -33.683594 C 42.132812 -33.683594 43.949219 -35.5 43.949219 -37.855469 C 43.949219 -40.207031 41.917969 -42.023438 39.777344 -42.023438 L 16.359375 -42.023438 L 16.359375 -67.046875 L 41.808594 -67.046875 C 44.164062 -67.046875 46.085938 -68.757812 46.085938 -71.109375 C 46.085938 -73.460938 44.164062 -75.386719 41.808594 -75.386719 L 12.832031 -75.386719 C 9.945312 -75.386719 7.804688 -72.820312 7.804688 -70.359375 L 7.804688 -5.027344 C 7.804688 -1.175781 11.015625 0 14.542969 0 L 42.878906 0 C 45.230469 0 47.15625 -1.925781 47.15625 -4.382812 Z M 47.15625 -4.382812 "/></g></g></g><g fill="#ffffff" fill-opacity="1"><g transform="translate(157.339227, 177.907188)"><g><path d="M 54.640625 -54 C 54.640625 -64.585938 48.976562 -75.386719 31.332031 -75.386719 L 12.726562 -75.386719 C 10.050781 -75.386719 7.804688 -73.035156 7.804688 -70.253906 L 7.804688 -3.421875 C 7.804688 -0.960938 9.730469 1.070312 11.976562 1.070312 C 14.328125 1.070312 16.359375 -1.070312 16.359375 -3.421875 L 16.359375 -33.148438 L 28.65625 -33.148438 L 47.585938 -1.070312 C 48.332031 0.214844 49.617188 0.960938 51.113281 0.960938 C 52.824219 0.960938 55.710938 -0.855469 55.710938 -3.101562 C 55.710938 -3.957031 55.496094 -4.917969 55.175781 -5.558594 L 38.066406 -33.683594 C 48.226562 -35.714844 54.640625 -42.664062 54.640625 -54 Z M 46.085938 -54 C 46.085938 -45.765625 40.953125 -41.382812 31.542969 -41.382812 L 16.359375 -41.382812 L 16.359375 -67.046875 L 30.902344 -67.046875 C 43.308594 -67.046875 46.085938 -60.308594 46.085938 -54 Z M 46.085938 -54 "/></g></g></g><g fill="#ffffff" fill-opacity="1"><g transform="translate(213.478125, 177.907188)"><g><path d="M 16.574219 -39.457031 C 16.574219 -40.3125 16.46875 -41.277344 16.359375 -42.34375 C 21.707031 -46.300781 25.558594 -46.300781 29.941406 -46.195312 C 32.1875 -46.085938 34.109375 -47.796875 34.109375 -50.472656 C 34.109375 -52.71875 32.828125 -54.535156 28.550781 -54.535156 C 24.488281 -54.535156 18.5 -52.824219 13.902344 -49.9375 C 12.832031 -51.648438 11.335938 -52.824219 9.625 -52.824219 C 7.59375 -52.824219 5.773438 -51.328125 5.773438 -49.082031 C 5.773438 -48.121094 6.09375 -47.585938 6.523438 -46.941406 C 7.804688 -45.019531 8.234375 -42.988281 8.234375 -39.457031 L 8.234375 -3.316406 C 8.234375 -0.960938 10.050781 0.855469 12.402344 0.855469 C 14.757812 0.855469 16.574219 -0.960938 16.574219 -3.316406 Z M 16.574219 -39.457031 "/></g></g></g><g fill="#ffffff" fill-opacity="1"><g transform="translate(244.167376, 177.907188)"><g><path d="M 24.808594 -6.523438 C 17.109375 -6.523438 13.152344 -10.371094 13.152344 -16.359375 L 13.152344 -22.667969 C 16.894531 -22.027344 20.851562 -21.707031 24.058594 -21.707031 C 36.785156 -21.707031 42.132812 -27.695312 42.132812 -37.53125 C 42.132812 -48.121094 36.25 -54.964844 24.378906 -54.964844 C 11.65625 -54.964844 4.8125 -47.15625 4.8125 -36.890625 L 4.8125 -16.894531 C 4.8125 -6.84375 11.761719 0.855469 23.847656 0.855469 C 29.621094 0.855469 41.167969 -0.855469 41.167969 -6.09375 C 41.167969 -8.019531 39.566406 -9.835938 37.425781 -9.835938 C 36.675781 -9.835938 36.144531 -9.625 35.929688 -9.515625 C 32.1875 -7.804688 29.300781 -6.523438 24.808594 -6.523438 Z M 33.898438 -37.53125 C 33.898438 -33.148438 32.507812 -28.765625 24.378906 -28.765625 C 22.242188 -28.765625 17.109375 -28.976562 13.152344 -29.511719 L 13.152344 -37.640625 C 13.152344 -43.628906 17.214844 -47.371094 24.167969 -47.371094 C 30.367188 -47.371094 33.898438 -44.484375 33.898438 -37.53125 Z M 33.898438 -37.53125 "/></g></g></g><g fill="#ffffff" fill-opacity="1"><g transform="translate(285.335893, 177.907188)"><g><path d="M 27.910156 -27.589844 L 41.917969 -48.652344 C 42.34375 -49.296875 42.453125 -50.042969 42.453125 -50.6875 C 42.453125 -52.929688 40.3125 -54.640625 38.386719 -54.640625 C 36.464844 -54.640625 35.5 -53.574219 34.433594 -51.863281 L 23.203125 -34.433594 L 12.402344 -51.007812 C 11.335938 -52.609375 10.050781 -54.640625 7.699219 -54.640625 C 5.347656 -54.640625 3.527344 -52.609375 3.527344 -50.363281 C 3.527344 -49.832031 3.742188 -49.082031 4.171875 -48.546875 L 18.179688 -27.375 L 3.207031 -5.132812 C 2.78125 -4.492188 2.671875 -3.957031 2.671875 -3.316406 C 2.671875 -0.855469 4.597656 0.855469 6.949219 0.855469 C 8.339844 0.855469 9.410156 0.214844 10.371094 -1.28125 L 22.992188 -20.636719 L 35.074219 -2.03125 C 36.355469 0 37.210938 0.855469 39.136719 0.855469 C 41.703125 0.855469 43.414062 -1.175781 43.414062 -3.527344 C 43.414062 -4.0625 43.308594 -4.703125 42.878906 -5.347656 Z M 27.910156 -27.589844 "/></g></g></g><g fill="#ffffff" fill-opacity="1"><g transform="translate(65.378371, 279.420836)"><g><path d="M 46.835938 -4.171875 C 46.835938 -6.414062 44.910156 -8.234375 42.773438 -8.234375 L 16.359375 -8.234375 L 16.359375 -72.179688 C 16.359375 -74.425781 14.4375 -76.457031 12.082031 -76.457031 C 9.730469 -76.457031 7.804688 -74.425781 7.804688 -72.179688 L 7.804688 -4.8125 C 7.804688 -2.136719 10.050781 0 12.617188 0 L 42.773438 0 C 45.019531 0 46.835938 -1.816406 46.835938 -4.171875 Z M 46.835938 -4.171875 "/></g></g></g><g fill="#ffffff" fill-opacity="1"><g transform="translate(107.936996, 279.420836)"><g><path d="M 34.433594 -30.046875 C 31.117188 -31.011719 27.480469 -31.542969 23.632812 -31.542969 C 11.015625 -31.542969 4.8125 -26.199219 4.8125 -15.71875 L 4.8125 -15.292969 C 4.8125 -5.667969 10.160156 0.855469 21.171875 0.855469 C 26.945312 0.855469 31.757812 -1.070312 35.820312 -4.8125 C 37.425781 -1.496094 40.3125 0.535156 43.84375 0.535156 C 46.195312 0.535156 48.652344 -0.425781 48.652344 -3.101562 C 48.652344 -4.917969 47.585938 -6.738281 45.554688 -6.738281 C 45.125 -6.738281 45.019531 -6.628906 44.699219 -6.628906 C 43.414062 -6.628906 42.773438 -7.699219 42.773438 -9.835938 L 42.773438 -33.363281 C 42.773438 -47.476562 37.425781 -54.964844 24.058594 -54.964844 C 16.679688 -54.964844 8.660156 -52.929688 9.089844 -48.011719 C 9.195312 -46.410156 10.050781 -44.484375 12.082031 -44.484375 C 13.257812 -44.484375 14.542969 -45.230469 14.863281 -45.339844 C 17.214844 -46.621094 19.246094 -47.585938 22.992188 -47.585938 C 30.6875 -47.585938 34.433594 -43.949219 34.433594 -36.144531 Z M 23.523438 -24.488281 C 26.734375 -24.488281 30.902344 -23.953125 34.433594 -22.882812 L 34.433594 -11.335938 C 30.6875 -8.125 27.054688 -6.628906 22.457031 -6.628906 C 15.292969 -6.628906 13.046875 -10.160156 13.046875 -15.183594 L 13.046875 -15.613281 C 13.046875 -20.425781 14.757812 -24.488281 23.523438 -24.488281 Z M 23.523438 -24.488281 "/></g></g></g><g fill="#ffffff" fill-opacity="1"><g transform="translate(154.13129, 279.420836)"><g><path d="M 16.253906 -42.34375 C 19.246094 -45.660156 23.097656 -47.691406 28.445312 -47.691406 C 35.609375 -47.691406 38.710938 -44.164062 38.710938 -38.28125 L 38.710938 -18.179688 C 38.710938 -11.121094 35.179688 -6.84375 27.480469 -6.84375 C 20.53125 -6.84375 16.253906 -10.265625 16.253906 -16.039062 Z M 7.914062 -16.039062 C 7.914062 -6.628906 15.078125 0.855469 27.480469 0.855469 C 40.527344 0.855469 47.050781 -7.484375 47.050781 -18.179688 L 47.050781 -38.28125 C 47.050781 -47.691406 42.664062 -54.964844 30.476562 -54.964844 C 24.703125 -54.964844 20.210938 -53.359375 16.253906 -50.578125 L 16.253906 -73.460938 C 16.253906 -75.601562 14.757812 -77.527344 12.082031 -77.527344 C 9.410156 -77.527344 7.914062 -75.601562 7.914062 -73.460938 Z M 7.914062 -16.039062 "/></g></g></g><g fill="#ffffff" fill-opacity="1"><g transform="translate(200.646375, 279.420836)"><g><path d="M 5.667969 -39.566406 C 5.667969 -25.449219 19.890625 -24.703125 26.625 -21.066406 C 28.765625 -19.890625 30.582031 -18.285156 30.582031 -14.4375 C 30.582031 -8.875 26.625 -6.523438 20.746094 -6.523438 C 16.46875 -6.523438 13.046875 -7.804688 10.050781 -8.980469 C 9.730469 -9.089844 9.625 -9.195312 8.980469 -9.195312 C 6.414062 -9.195312 5.027344 -7.164062 5.027344 -5.347656 C 5.027344 -0.425781 15.292969 0.855469 20.746094 0.855469 C 32.613281 0.855469 38.710938 -5.132812 38.710938 -14.757812 C 38.710938 -28.65625 26.199219 -29.621094 18.820312 -33.253906 C 15.183594 -35.074219 13.792969 -36.785156 13.792969 -40.097656 C 13.792969 -45.019531 16.789062 -47.585938 23.3125 -47.585938 C 27.160156 -47.585938 29.191406 -46.730469 31.4375 -45.660156 C 32.078125 -45.339844 32.613281 -45.125 33.363281 -45.125 C 35.609375 -45.125 37.210938 -46.941406 37.210938 -48.976562 C 37.210938 -53.464844 28.550781 -54.964844 22.992188 -54.964844 C 11.65625 -54.964844 5.667969 -48.761719 5.667969 -39.566406 Z M 5.667969 -39.566406 "/></g></g></g></svg>